<svg width="65" height="33" viewBox="0 0 65 33" fill="none" xmlns="http://www.w3.org/2000/svg">
<path d="M21.8398 25H18.793V8.19531H21.8398V25ZM28.4727 25H25.4258V8.19531H28.4727V25ZM47.082 25H36.0898C35.8086 25 35.5039 24.9688 35.1758 24.9062C34.8555 24.8359 34.5352 24.7305 34.2148 24.5898C33.9023 24.4492 33.6016 24.2695 33.3125 24.0508C33.0234 23.8242 32.7656 23.5547 32.5391 23.2422C32.3203 22.9219 32.1445 22.5547 32.0117 22.1406C31.8789 21.7188 31.8125 21.2461 31.8125 20.7227V12.4727C31.8125 12.1914 31.8438 11.8906 31.9062 11.5703C31.9766 11.2422 32.082 10.9219 32.2227 10.6094C32.3633 10.2891 32.5469 9.98438 32.7734 9.69531C33 9.40625 33.2695 9.15234 33.582 8.93359C33.9023 8.70703 34.2695 8.52734 34.6836 8.39453C35.0977 8.26172 35.5664 8.19531 36.0898 8.19531H47.082V11.2422H36.0898C35.6914 11.2422 35.3867 11.3477 35.1758 11.5586C34.9648 11.7695 34.8594 12.082 34.8594 12.4961V20.7227C34.8594 21.1133 34.9648 21.418 35.1758 21.6367C35.3945 21.8477 35.6992 21.9531 36.0898 21.9531H47.082V25Z" fill="white"/>
</svg>
