<svg width="131" height="29" viewBox="0 0 131 29" fill="none" xmlns="http://www.w3.org/2000/svg">
<g clip-path="url(#clip0_246_170)">
<path d="M8.841 21.21C7.343 21.21 5.964 20.86 4.704 20.16C3.444 19.446 2.45 18.466 1.722 17.22C0.994 15.96 0.63 14.56 0.63 13.02C0.63 11.396 0.994 9.961 1.722 8.715C2.45 7.469 3.43 6.51 4.662 5.838C5.894 5.152 7.245 4.809 8.715 4.809C10.129 4.809 11.319 5.061 12.285 5.565C13.265 6.055 14.189 6.748 15.057 7.644C15.085 7.672 15.127 7.686 15.183 7.686C15.267 7.686 15.414 7.623 15.624 7.497L15.876 7.812L12.978 10.101L12.726 9.786C12.81 9.73 12.873 9.66 12.915 9.576C12.971 9.478 12.971 9.408 12.915 9.366C12.327 8.792 11.711 8.358 11.067 8.064C10.437 7.756 9.667 7.602 8.757 7.602C7.805 7.602 6.93 7.84 6.132 8.316C5.334 8.778 4.704 9.422 4.242 10.248C3.78 11.074 3.549 11.998 3.549 13.02C3.549 14 3.794 14.896 4.284 15.708C4.774 16.506 5.425 17.136 6.237 17.598C7.049 18.06 7.917 18.291 8.841 18.291C9.709 18.291 10.451 18.144 11.067 17.85C11.683 17.542 12.264 17.087 12.81 16.485L12.852 16.401C12.852 16.331 12.817 16.254 12.747 16.17C12.691 16.072 12.628 16.002 12.558 15.96L12.831 15.666L15.96 18.291L15.708 18.606C15.624 18.536 15.519 18.473 15.393 18.417C15.267 18.361 15.183 18.361 15.141 18.417C14.259 19.369 13.335 20.076 12.369 20.538C11.403 20.986 10.227 21.21 8.841 21.21ZM22.0426 21.252C21.0066 21.252 20.0896 21.035 19.2916 20.601C18.5076 20.153 17.8916 19.544 17.4436 18.774C17.0096 18.004 16.7926 17.136 16.7926 16.17C16.7926 15.218 17.0096 14.35 17.4436 13.566C17.8916 12.782 18.5146 12.166 19.3126 11.718C20.1106 11.256 21.0206 11.025 22.0426 11.025C23.0226 11.025 23.9116 11.249 24.7096 11.697C25.5076 12.131 26.1376 12.74 26.5996 13.524C27.0616 14.294 27.2926 15.176 27.2926 16.17C27.2926 17.038 27.0826 17.864 26.6626 18.648C26.2566 19.418 25.6546 20.048 24.8566 20.538C24.0586 21.014 23.1206 21.252 22.0426 21.252ZM22.0426 18.837C22.8686 18.837 23.5336 18.599 24.0376 18.123C24.5556 17.633 24.8146 17.003 24.8146 16.233C24.8146 15.435 24.5556 14.777 24.0376 14.259C23.5336 13.741 22.8686 13.482 22.0426 13.482C21.2726 13.482 20.6286 13.741 20.1106 14.259C19.5926 14.763 19.3336 15.4 19.3336 16.17C19.3336 16.982 19.5926 17.633 20.1106 18.123C20.6286 18.599 21.2726 18.837 22.0426 18.837ZM39.6892 20.37C39.6892 20.44 39.7382 20.496 39.8362 20.538C39.9482 20.58 40.0532 20.601 40.1512 20.601V21H37.1482V20.265C36.3082 20.951 35.3072 21.294 34.1452 21.294C33.1092 21.294 32.1852 21.084 31.3732 20.664C30.5612 20.244 29.9242 19.649 29.4622 18.879C29.0002 18.109 28.7692 17.22 28.7692 16.212C28.7692 15.19 29.0002 14.287 29.4622 13.503C29.9382 12.705 30.5822 12.089 31.3942 11.655C32.2202 11.207 33.1372 10.983 34.1452 10.983C35.3072 10.983 36.3082 11.312 37.1482 11.97V5.88C37.1482 5.81 37.0992 5.754 37.0012 5.712C36.9032 5.67 36.8052 5.649 36.7072 5.649V5.25H40.1302V5.649C40.0322 5.649 39.9342 5.67 39.8362 5.712C39.7382 5.754 39.6892 5.81 39.6892 5.88V20.37ZM34.2712 19.047C34.8172 19.047 35.3142 18.921 35.7622 18.669C36.2242 18.417 36.5812 18.081 36.8332 17.661C37.0992 17.227 37.2322 16.772 37.2322 16.296C37.2322 15.442 36.9522 14.742 36.3922 14.196C35.8462 13.636 35.1392 13.356 34.2712 13.356C33.4032 13.356 32.6892 13.629 32.1292 14.175C31.5832 14.707 31.3102 15.4 31.3102 16.254C31.3102 17.108 31.5902 17.787 32.1502 18.291C32.7242 18.795 33.4312 19.047 34.2712 19.047ZM47.0592 10.899C48.1372 10.899 49.0682 11.137 49.8522 11.613C50.6362 12.075 51.2312 12.705 51.6372 13.503C52.0432 14.301 52.2462 15.183 52.2462 16.149C52.2462 16.443 52.2252 16.737 52.1832 17.031H44.4972C44.5532 17.703 44.8472 18.228 45.3792 18.606C45.9112 18.984 46.5482 19.173 47.2902 19.173C47.7942 19.173 48.2142 19.103 48.5502 18.963C48.9002 18.823 49.2082 18.613 49.4742 18.333C49.5022 18.277 49.5162 18.242 49.5162 18.228C49.5162 18.172 49.4952 18.116 49.4532 18.06C49.4112 17.99 49.3692 17.941 49.3272 17.913L49.5792 17.598L51.9102 19.425L51.6792 19.74C51.4692 19.614 51.3222 19.6 51.2382 19.698C50.2582 20.874 48.9422 21.462 47.2902 21.462C46.2262 21.462 45.2882 21.231 44.4762 20.769C43.6642 20.293 43.0342 19.663 42.5862 18.879C42.1522 18.081 41.9352 17.199 41.9352 16.233C41.9352 15.211 42.1522 14.294 42.5862 13.482C43.0202 12.67 43.6222 12.04 44.3922 11.592C45.1762 11.13 46.0652 10.899 47.0592 10.899ZM49.7262 15.078C49.6702 14.504 49.3762 14.021 48.8442 13.629C48.3262 13.223 47.7382 13.02 47.0802 13.02C46.4222 13.02 45.8552 13.223 45.3792 13.629C44.9032 14.021 44.6162 14.504 44.5182 15.078H49.7262ZM60.3031 10.71V14.091H59.9041C59.9041 13.993 59.8831 13.881 59.8411 13.755C59.7991 13.629 59.7431 13.559 59.6731 13.545H59.5261C59.0921 13.545 58.6511 13.671 58.2031 13.923C57.7691 14.161 57.4051 14.483 57.1111 14.889C56.8311 15.281 56.6911 15.701 56.6911 16.149V20.37C56.6911 20.44 56.7401 20.496 56.8381 20.538C56.9501 20.58 57.0551 20.601 57.1531 20.601V21H53.6251V20.601C53.7231 20.601 53.8211 20.58 53.9191 20.538C54.0311 20.496 54.0871 20.44 54.0871 20.37V11.97C54.0871 11.9 54.0311 11.844 53.9191 11.802C53.8211 11.76 53.7231 11.739 53.6251 11.739V11.34H56.6911V12.243C57.0691 11.893 57.5241 11.613 58.0561 11.403C58.5881 11.193 59.1201 11.088 59.6521 11.088H59.6731H59.6941C59.7641 11.088 59.8131 11.046 59.8411 10.962C59.8831 10.878 59.9041 10.794 59.9041 10.71H60.3031ZM65.6611 21.315C64.9471 21.315 64.2541 21.168 63.5821 20.874C62.9241 20.58 62.2591 20.16 61.5871 19.614C61.5591 19.586 61.5241 19.572 61.4821 19.572C61.3701 19.572 61.2511 19.635 61.1251 19.761L60.8311 19.509L62.9311 17.115L63.2251 17.388C63.1691 17.458 63.1201 17.542 63.0781 17.64C63.0501 17.738 63.0641 17.815 63.1201 17.871C63.5821 18.291 64.0091 18.606 64.4011 18.816C64.8071 19.012 65.2271 19.11 65.6611 19.11C66.7391 19.11 67.2781 18.753 67.2781 18.039C67.2781 17.717 67.1101 17.472 66.7741 17.304C66.4521 17.122 65.9061 16.926 65.1361 16.716C64.1421 16.45 63.4211 16.107 62.9731 15.687C62.5251 15.253 62.3011 14.665 62.3011 13.923C62.3011 13.041 62.5881 12.327 63.1621 11.781C63.7361 11.221 64.5201 10.941 65.5141 10.941C66.0181 10.941 66.4731 11.018 66.8791 11.172C67.2851 11.326 67.7751 11.599 68.3491 11.991C68.3631 12.005 68.3911 12.012 68.4331 12.012C68.5031 12.012 68.5731 11.991 68.6431 11.949C68.7131 11.907 68.7621 11.865 68.7901 11.823L69.1051 12.096L67.2151 14.238L66.9211 13.986C66.9771 13.93 67.0121 13.86 67.0261 13.776C67.0541 13.678 67.0401 13.601 66.9841 13.545C66.7321 13.349 66.4871 13.202 66.2491 13.104C66.0251 13.006 65.7731 12.957 65.4931 12.957C65.1991 12.957 64.9681 13.013 64.8001 13.125C64.6321 13.237 64.5481 13.405 64.5481 13.629C64.5481 13.811 64.5971 13.958 64.6951 14.07C64.7931 14.182 64.9681 14.294 65.2201 14.406C65.4861 14.518 65.8851 14.658 66.4171 14.826C67.3971 15.12 68.1671 15.533 68.7271 16.065C69.2871 16.583 69.5671 17.227 69.5671 17.997C69.5671 19.131 69.2101 19.971 68.4961 20.517C67.7821 21.049 66.8371 21.315 65.6611 21.315ZM71.1457 7.203C71.1457 6.713 71.3277 6.3 71.6917 5.964C72.0557 5.614 72.4967 5.439 73.0147 5.439C73.6167 5.439 74.0927 5.635 74.4427 6.027C74.8067 6.419 74.9887 7.014 74.9887 7.812C74.9887 9.03 74.6247 9.891 73.8967 10.395C73.1827 10.899 72.3007 11.151 71.2507 11.151V10.605C71.8527 10.507 72.3707 10.318 72.8047 10.038C73.2527 9.744 73.4767 9.387 73.4767 8.967C73.3507 8.995 73.1757 9.009 72.9517 9.009C72.4337 9.009 71.9997 8.841 71.6497 8.505C71.3137 8.155 71.1457 7.721 71.1457 7.203ZM90.7697 21.21C89.2717 21.21 87.8927 20.86 86.6327 20.16C85.3727 19.446 84.3787 18.466 83.6507 17.22C82.9227 15.96 82.5587 14.56 82.5587 13.02C82.5587 11.396 82.9227 9.961 83.6507 8.715C84.3787 7.469 85.3587 6.51 86.5907 5.838C87.8227 5.152 89.1737 4.809 90.6437 4.809C92.0577 4.809 93.2477 5.061 94.2137 5.565C95.1937 6.055 96.1177 6.748 96.9857 7.644C97.0137 7.672 97.0557 7.686 97.1117 7.686C97.1957 7.686 97.3427 7.623 97.5527 7.497L97.8047 7.812L94.9067 10.101L94.6547 9.786C94.7387 9.73 94.8017 9.66 94.8437 9.576C94.8997 9.478 94.8997 9.408 94.8437 9.366C94.2557 8.792 93.6397 8.358 92.9957 8.064C92.3657 7.756 91.5957 7.602 90.6857 7.602C89.7337 7.602 88.8587 7.84 88.0607 8.316C87.2627 8.778 86.6327 9.422 86.1707 10.248C85.7087 11.074 85.4777 11.998 85.4777 13.02C85.4777 14 85.7227 14.896 86.2127 15.708C86.7027 16.506 87.3537 17.136 88.1657 17.598C88.9777 18.06 89.8457 18.291 90.7697 18.291C91.6377 18.291 92.3797 18.144 92.9957 17.85C93.6117 17.542 94.1927 17.087 94.7387 16.485L94.7807 16.401C94.7807 16.331 94.7457 16.254 94.6757 16.17C94.6197 16.072 94.5567 16.002 94.4867 15.96L94.7597 15.666L97.8887 18.291L97.6367 18.606C97.5527 18.536 97.4477 18.473 97.3217 18.417C97.1957 18.361 97.1117 18.361 97.0697 18.417C96.1877 19.369 95.2637 20.076 94.2977 20.538C93.3317 20.986 92.1557 21.21 90.7697 21.21ZM99.4353 5.88C99.4353 5.81 99.3793 5.754 99.2673 5.712C99.1693 5.67 99.0643 5.649 98.9523 5.649V5.25H102.648V5.649C102.536 5.649 102.424 5.67 102.312 5.712C102.214 5.754 102.165 5.81 102.165 5.88V20.37C102.165 20.44 102.214 20.496 102.312 20.538C102.424 20.58 102.536 20.601 102.648 20.601V21H98.9523V20.601C99.0643 20.601 99.1693 20.58 99.2673 20.538C99.3793 20.496 99.4353 20.44 99.4353 20.37V5.88ZM114.021 20.37C114.021 20.44 114.07 20.496 114.168 20.538C114.28 20.58 114.385 20.601 114.483 20.601V21H111.879V20.223C111.137 20.867 110.276 21.189 109.296 21.189C107.826 21.189 106.748 20.769 106.062 19.929C105.376 19.075 105.033 18.011 105.033 16.737V11.97C105.033 11.9 104.977 11.844 104.865 11.802C104.767 11.76 104.669 11.739 104.571 11.739V11.34H108.141V11.739C108.043 11.739 107.938 11.76 107.826 11.802C107.728 11.844 107.679 11.9 107.679 11.97V16.569C107.679 17.171 107.833 17.682 108.141 18.102C108.449 18.508 108.925 18.711 109.569 18.711C110.185 18.711 110.647 18.522 110.955 18.144C111.263 17.766 111.417 17.283 111.417 16.695V11.97C111.417 11.9 111.361 11.844 111.249 11.802C111.151 11.76 111.053 11.739 110.955 11.739V11.34H114.483V11.739C114.385 11.739 114.28 11.76 114.168 11.802C114.07 11.844 114.021 11.9 114.021 11.97V20.37ZM122.557 11.088C123.551 11.088 124.454 11.305 125.266 11.739C126.078 12.159 126.715 12.754 127.177 13.524C127.653 14.294 127.891 15.183 127.891 16.191C127.891 17.213 127.66 18.109 127.198 18.879C126.736 19.635 126.099 20.223 125.287 20.643C124.489 21.063 123.579 21.273 122.557 21.273C121.381 21.273 120.359 20.923 119.491 20.223V21H116.425V20.601C116.523 20.601 116.621 20.58 116.719 20.538C116.831 20.496 116.887 20.44 116.887 20.37V5.88C116.887 5.81 116.831 5.754 116.719 5.712C116.621 5.67 116.523 5.649 116.425 5.649V5.25H119.953V5.649C119.855 5.649 119.75 5.67 119.638 5.712C119.54 5.754 119.491 5.81 119.491 5.88V12.075C120.331 11.417 121.353 11.088 122.557 11.088ZM122.389 19.047C123.229 19.047 123.929 18.788 124.489 18.27C125.063 17.752 125.35 17.059 125.35 16.191C125.35 15.379 125.07 14.707 124.51 14.175C123.95 13.629 123.243 13.356 122.389 13.356C121.521 13.356 120.807 13.629 120.247 14.175C119.687 14.721 119.407 15.414 119.407 16.254C119.407 16.744 119.533 17.206 119.785 17.64C120.051 18.06 120.415 18.403 120.877 18.669C121.339 18.921 121.843 19.047 122.389 19.047Z" fill="white"/>
</g>
<defs>
<clipPath id="clip0_246_170">
<rect width="131" height="28" fill="white" transform="translate(0 0.5)"/>
</clipPath>
</defs>
</svg>
