<svg width="67" height="27" viewBox="0 0 67 27" fill="none" xmlns="http://www.w3.org/2000/svg">
<path d="M22.1514 17.6162C22.1514 17.96 22.0905 18.3288 21.9688 18.7227C21.8542 19.1165 21.6608 19.4818 21.3887 19.8184C21.1237 20.1549 20.7764 20.4378 20.3467 20.667C19.917 20.889 19.3906 21 18.7676 21H8.16504C7.96452 21 7.77832 20.9642 7.60645 20.8926C7.43457 20.821 7.28418 20.7243 7.15527 20.6025C7.03353 20.4736 6.93685 20.3232 6.86523 20.1514C6.79362 19.9795 6.75781 19.7933 6.75781 19.5928V7.00293C6.75781 6.80957 6.79362 6.62695 6.86523 6.45508C6.93685 6.2832 7.03353 6.13281 7.15527 6.00391C7.28418 5.875 7.43457 5.77474 7.60645 5.70312C7.77832 5.63151 7.96452 5.5957 8.16504 5.5957H17.5107C17.8545 5.5957 18.2233 5.65658 18.6172 5.77832C19.0111 5.90007 19.3763 6.09701 19.7129 6.36914C20.0566 6.63411 20.3395 6.98145 20.5615 7.41113C20.7907 7.84082 20.9053 8.36719 20.9053 8.99023V9.5166C20.9053 10.0107 20.8229 10.5443 20.6582 11.1172C20.4935 11.6829 20.2285 12.2201 19.8633 12.7285C20.1784 12.9219 20.472 13.1546 20.7441 13.4268C21.0234 13.6989 21.2669 14.014 21.4746 14.3721C21.6823 14.7301 21.847 15.1348 21.9688 15.5859C22.0905 16.0371 22.1514 16.5348 22.1514 17.0791V17.6162ZM19.3584 17.0791C19.3584 16.7139 19.3011 16.388 19.1865 16.1016C19.0719 15.8079 18.9108 15.5573 18.7031 15.3496C18.4954 15.1419 18.2448 14.9844 17.9512 14.877C17.6576 14.7624 17.3281 14.7051 16.9629 14.7051H10.668V11.8906H15.7061C16.0713 11.8906 16.4007 11.8369 16.6943 11.7295C16.988 11.6149 17.2386 11.4538 17.4463 11.2461C17.654 11.0384 17.8115 10.7913 17.9189 10.5049C18.0335 10.2113 18.0908 9.88184 18.0908 9.5166V8.99023C18.0908 8.58919 17.8975 8.38867 17.5107 8.38867H9.55078V18.207H18.7676C18.8177 18.207 18.8786 18.2035 18.9502 18.1963C19.0218 18.1891 19.0863 18.1676 19.1436 18.1318C19.2008 18.096 19.251 18.0352 19.2939 17.9492C19.3369 17.8633 19.3584 17.7451 19.3584 17.5947V17.0791ZM39.9619 17.6162C39.9619 17.96 39.901 18.3288 39.7793 18.7227C39.6647 19.1165 39.4714 19.4818 39.1992 19.8184C38.9342 20.1549 38.5869 20.4378 38.1572 20.667C37.7275 20.889 37.2012 21 36.5781 21H25.9756C25.7751 21 25.5889 20.9642 25.417 20.8926C25.2451 20.821 25.0947 20.7243 24.9658 20.6025C24.8441 20.4736 24.7474 20.3232 24.6758 20.1514C24.6042 19.9795 24.5684 19.7933 24.5684 19.5928V7.00293C24.5684 6.80957 24.6042 6.62695 24.6758 6.45508C24.7474 6.2832 24.8441 6.13281 24.9658 6.00391C25.0947 5.875 25.2451 5.77474 25.417 5.70312C25.5889 5.63151 25.7751 5.5957 25.9756 5.5957H35.3213C35.665 5.5957 36.0339 5.65658 36.4277 5.77832C36.8216 5.90007 37.1868 6.09701 37.5234 6.36914C37.8672 6.63411 38.1501 6.98145 38.3721 7.41113C38.6012 7.84082 38.7158 8.36719 38.7158 8.99023V9.5166C38.7158 10.0107 38.6335 10.5443 38.4688 11.1172C38.304 11.6829 38.0391 12.2201 37.6738 12.7285C37.9889 12.9219 38.2826 13.1546 38.5547 13.4268C38.834 13.6989 39.0775 14.014 39.2852 14.3721C39.4928 14.7301 39.6576 15.1348 39.7793 15.5859C39.901 16.0371 39.9619 16.5348 39.9619 17.0791V17.6162ZM37.1689 17.0791C37.1689 16.7139 37.1117 16.388 36.9971 16.1016C36.8825 15.8079 36.7214 15.5573 36.5137 15.3496C36.306 15.1419 36.0553 14.9844 35.7617 14.877C35.4681 14.7624 35.1387 14.7051 34.7734 14.7051H28.4785V11.8906H33.5166C33.8818 11.8906 34.2113 11.8369 34.5049 11.7295C34.7985 11.6149 35.0492 11.4538 35.2568 11.2461C35.4645 11.0384 35.6221 10.7913 35.7295 10.5049C35.8441 10.2113 35.9014 9.88184 35.9014 9.5166V8.99023C35.9014 8.58919 35.708 8.38867 35.3213 8.38867H27.3613V18.207H36.5781C36.6283 18.207 36.6891 18.2035 36.7607 18.1963C36.8324 18.1891 36.8968 18.1676 36.9541 18.1318C37.0114 18.096 37.0615 18.0352 37.1045 17.9492C37.1475 17.8633 37.1689 17.7451 37.1689 17.5947V17.0791ZM45.2148 21H42.4219V5.5957H45.2148V21ZM62.4023 8.38867H56.2471V21H53.4541V8.38867H47.2881V5.5957H62.4023V8.38867Z" fill="white"/>
</svg>
