<svg width="83" height="15" viewBox="0 0 83 15" fill="none" xmlns="http://www.w3.org/2000/svg">
<g clip-path="url(#clip0_246_258)">
<path d="M12.3701 8.20801H6.3569V6.28906H12.3701V8.20801ZM13.227 12.5H6.3569C6.09323 12.5 5.80515 12.4536 5.49265 12.3608C5.18015 12.2681 4.88962 12.1167 4.62106 11.9067C4.35739 11.6919 4.13522 11.416 3.95456 11.0791C3.77878 10.7373 3.69089 10.3198 3.69089 9.82666V2.95654C3.69089 2.82471 3.7153 2.7002 3.76413 2.58301C3.81296 2.46582 3.87888 2.36328 3.96188 2.27539C4.04977 2.1875 4.15231 2.11914 4.2695 2.07031C4.38669 2.02148 4.51364 1.99707 4.65036 1.99707H13.227V3.90137H5.59518V9.82666C5.59518 10.0757 5.6611 10.2661 5.79294 10.3979C5.92477 10.5298 6.11765 10.5957 6.37155 10.5957H13.227V12.5ZM25.5537 8.10547C25.5537 8.74512 25.4414 9.3335 25.2168 9.87061C24.997 10.4077 24.6919 10.8716 24.3012 11.2622C23.9106 11.6479 23.4467 11.9507 22.9096 12.1704C22.3725 12.3901 21.789 12.5 21.1591 12.5H16.0175C15.8808 12.5 15.7539 12.4756 15.6367 12.4268C15.5195 12.3779 15.417 12.312 15.3291 12.229C15.2461 12.1411 15.1801 12.0386 15.1313 11.9214C15.0825 11.8042 15.0581 11.6772 15.0581 11.5405V2.95654C15.0581 2.82471 15.0825 2.7002 15.1313 2.58301C15.1801 2.46582 15.2461 2.36328 15.3291 2.27539C15.417 2.1875 15.5195 2.11914 15.6367 2.07031C15.7539 2.02148 15.8808 1.99707 16.0175 1.99707H21.1591C21.789 1.99707 22.3725 2.10693 22.9096 2.32666C23.4467 2.54639 23.9106 2.85156 24.3012 3.24219C24.6919 3.62793 24.997 4.0918 25.2168 4.63379C25.4414 5.1709 25.5537 5.75684 25.5537 6.3916V8.10547ZM23.6494 6.3916C23.6494 6.02051 23.5883 5.68115 23.4663 5.37354C23.3491 5.06592 23.1806 4.80469 22.9609 4.58984C22.7412 4.37012 22.4775 4.20166 22.1699 4.08447C21.8672 3.9624 21.5302 3.90137 21.1591 3.90137H16.9624V10.5957H21.1591C21.5302 10.5957 21.8672 10.5371 22.1699 10.4199C22.4775 10.2979 22.7412 10.1294 22.9609 9.91455C23.1806 9.69482 23.3491 9.43359 23.4663 9.13086C23.5883 8.82324 23.6494 8.48145 23.6494 8.10547V6.3916ZM36.8257 12.5H29.9555C29.7798 12.5 29.5893 12.4805 29.3842 12.4414C29.1841 12.3975 28.9839 12.3315 28.7837 12.2437C28.5883 12.1558 28.4004 12.0435 28.2197 11.9067C28.039 11.7651 27.8779 11.5967 27.7363 11.4014C27.5996 11.2012 27.4897 10.9717 27.4067 10.7129C27.3237 10.4492 27.2822 10.1538 27.2822 9.82666V4.67041C27.2822 4.49463 27.3017 4.30664 27.3408 4.10645C27.3847 3.90137 27.4507 3.70117 27.5385 3.50586C27.6264 3.30566 27.7412 3.11523 27.8828 2.93457C28.0244 2.75391 28.1928 2.59521 28.3882 2.4585C28.5883 2.31689 28.8178 2.20459 29.0766 2.12158C29.3354 2.03857 29.6284 1.99707 29.9555 1.99707H36.8257V3.90137H29.9555C29.7065 3.90137 29.5161 3.96729 29.3842 4.09912C29.2524 4.23096 29.1865 4.42627 29.1865 4.68506V9.82666C29.1865 10.0708 29.2524 10.2612 29.3842 10.3979C29.521 10.5298 29.7114 10.5957 29.9555 10.5957H36.8257V12.5ZM52.9096 12.5H46.0395C45.8637 12.5 45.6733 12.4805 45.4682 12.4414C45.268 12.3975 45.0678 12.3315 44.8676 12.2437C44.6723 12.1558 44.4843 12.0435 44.3037 11.9067C44.123 11.7651 43.9619 11.5967 43.8203 11.4014C43.6836 11.2012 43.5737 10.9717 43.4907 10.7129C43.4077 10.4492 43.3662 10.1538 43.3662 9.82666V4.67041C43.3662 4.49463 43.3857 4.30664 43.4248 4.10645C43.4687 3.90137 43.5346 3.70117 43.6225 3.50586C43.7104 3.30566 43.8252 3.11523 43.9668 2.93457C44.1084 2.75391 44.2768 2.59521 44.4721 2.4585C44.6723 2.31689 44.9018 2.20459 45.1606 2.12158C45.4194 2.03857 45.7124 1.99707 46.0395 1.99707H52.9096V3.90137H46.0395C45.7905 3.90137 45.6001 3.96729 45.4682 4.09912C45.3364 4.23096 45.2705 4.42627 45.2705 4.68506V9.82666C45.2705 10.0708 45.3364 10.2612 45.4682 10.3979C45.6049 10.5298 45.7954 10.5957 46.0395 10.5957H52.9096V12.5ZM62.9145 7.20459C62.9145 7.46826 62.8681 7.75391 62.7754 8.06152C62.6826 8.36426 62.5312 8.64746 62.3213 8.91113C62.1162 9.16992 61.8452 9.38721 61.5083 9.56299C61.1762 9.73877 60.771 9.82666 60.2924 9.82666H56.8574V8.01758H60.2924C60.5512 8.01758 60.7514 7.93945 60.893 7.7832C61.0346 7.62207 61.1054 7.42432 61.1054 7.18994C61.1054 6.94092 61.0249 6.74561 60.8637 6.604C60.7075 6.4624 60.5171 6.3916 60.2924 6.3916H56.8574C56.5986 6.3916 56.3984 6.47217 56.2568 6.6333C56.1152 6.78955 56.0444 6.98486 56.0444 7.21924V9.87793C56.0444 10.1318 56.1225 10.3296 56.2788 10.4712C56.4399 10.6128 56.6377 10.6836 56.872 10.6836H60.2924V12.5H56.8574C56.5937 12.5 56.3081 12.4536 56.0005 12.3608C55.6977 12.2681 55.4145 12.1191 55.1508 11.9141C54.8921 11.7041 54.6748 11.4331 54.499 11.1011C54.3232 10.7642 54.2353 10.3564 54.2353 9.87793V7.20459C54.2353 6.94092 54.2817 6.65771 54.3745 6.35498C54.4673 6.04736 54.6162 5.76416 54.8213 5.50537C55.0312 5.2417 55.3022 5.02197 55.6342 4.84619C55.9712 4.67041 56.3789 4.58252 56.8574 4.58252H60.2924C60.5561 4.58252 60.8393 4.62891 61.1421 4.72168C61.4497 4.81445 61.7329 4.96582 61.9917 5.17578C62.2553 5.38086 62.4751 5.65186 62.6508 5.98877C62.8266 6.3208 62.9145 6.72607 62.9145 7.20459ZM67.6753 12.5H66.8257C66.5522 12.5 66.2592 12.4536 65.9467 12.3608C65.6391 12.2681 65.351 12.1167 65.0825 11.9067C64.8139 11.6919 64.5918 11.416 64.416 11.0791C64.2402 10.7373 64.1523 10.3198 64.1523 9.82666V1.23535H66.0566V9.82666C66.0566 10.061 66.1299 10.249 66.2763 10.3906C66.4228 10.5273 66.6059 10.5957 66.8257 10.5957H67.6753V12.5ZM72.3774 12.5H71.5278C71.2544 12.5 70.9614 12.4536 70.6489 12.3608C70.3413 12.2681 70.0532 12.1167 69.7846 11.9067C69.5161 11.6919 69.2939 11.416 69.1181 11.0791C68.9424 10.7373 68.8545 10.3198 68.8545 9.82666V1.23535H70.7588V9.82666C70.7588 10.061 70.832 10.249 70.9785 10.3906C71.125 10.5273 71.3081 10.5957 71.5278 10.5957H72.3774V12.5Z" fill="white"/>
</g>
<defs>
<clipPath id="clip0_246_258">
<rect width="83" height="15" fill="white"/>
</clipPath>
</defs>
</svg>
