<svg width="65" height="33" viewBox="0 0 65 33" fill="none" xmlns="http://www.w3.org/2000/svg">
<path d="M27.918 20.0547C27.918 20.6562 27.8398 21.1992 27.6836 21.6836C27.5352 22.1602 27.3359 22.582 27.0859 22.9492C26.8359 23.3164 26.543 23.6289 26.207 23.8867C25.8711 24.1445 25.5234 24.3555 25.1641 24.5195C24.8047 24.6836 24.4375 24.8047 24.0625 24.8828C23.6953 24.9609 23.3477 25 23.0195 25H11.2656V21.9531H23.0195C23.6055 21.9531 24.0586 21.7812 24.3789 21.4375C24.707 21.0938 24.8711 20.6328 24.8711 20.0547C24.8711 19.7734 24.8281 19.5156 24.7422 19.2812C24.6562 19.0469 24.5312 18.8438 24.3672 18.6719C24.2109 18.5 24.0156 18.3672 23.7812 18.2734C23.5547 18.1797 23.3008 18.1328 23.0195 18.1328H16.0117C15.5195 18.1328 14.9883 18.0469 14.418 17.875C13.8477 17.6953 13.3164 17.4102 12.8242 17.0195C12.3398 16.6289 11.9336 16.1172 11.6055 15.4844C11.2852 14.8516 11.125 14.0781 11.125 13.1641C11.125 12.25 11.2852 11.4805 11.6055 10.8555C11.9336 10.2227 12.3398 9.71094 12.8242 9.32031C13.3164 8.92188 13.8477 8.63672 14.418 8.46484C14.9883 8.28516 15.5195 8.19531 16.0117 8.19531H26.3828V11.2422H16.0117C15.4336 11.2422 14.9805 11.418 14.6523 11.7695C14.332 12.1211 14.1719 12.5859 14.1719 13.1641C14.1719 13.75 14.332 14.2148 14.6523 14.5586C14.9805 14.8945 15.4336 15.0625 16.0117 15.0625H23.0195H23.043C23.3711 15.0703 23.7188 15.1172 24.0859 15.2031C24.4531 15.2812 24.8164 15.4062 25.1758 15.5781C25.543 15.75 25.8906 15.9688 26.2188 16.2344C26.5469 16.4922 26.8359 16.8047 27.0859 17.1719C27.3438 17.5391 27.5469 17.9609 27.6953 18.4375C27.8438 18.9141 27.918 19.4531 27.918 20.0547ZM33.5195 25H30.4727V8.19531H33.5195V25ZM40.1523 15.0625H50.8516V8.19531H53.8984V25H50.8516V18.1328H40.1523V25H37.1055V8.19531H40.1523V15.0625Z" fill="white"/>
</svg>
