<svg width="80" height="26" viewBox="0 0 80 26" fill="none" xmlns="http://www.w3.org/2000/svg">
<path d="M20.9375 19.5928C20.9375 19.7933 20.9017 19.9795 20.8301 20.1514C20.7585 20.3232 20.6582 20.4736 20.5293 20.6025C20.4076 20.7243 20.2607 20.821 20.0889 20.8926C19.917 20.9642 19.7308 21 19.5303 21H9.4541C9.19629 21 8.91699 20.9714 8.61621 20.9141C8.32259 20.8496 8.02897 20.7529 7.73535 20.624C7.44889 20.4951 7.17318 20.3304 6.9082 20.1299C6.64323 19.9222 6.4069 19.6751 6.19922 19.3887C5.9987 19.0951 5.83757 18.7585 5.71582 18.3789C5.59408 17.9922 5.5332 17.5589 5.5332 17.0791V9.5166C5.5332 9.25879 5.56185 8.98307 5.61914 8.68945C5.68359 8.38867 5.78027 8.09505 5.90918 7.80859C6.03809 7.51497 6.20638 7.23568 6.41406 6.9707C6.62174 6.70573 6.86882 6.47298 7.15527 6.27246C7.44889 6.06478 7.78548 5.90007 8.16504 5.77832C8.5446 5.65658 8.97428 5.5957 9.4541 5.5957H20.8086V8.38867H9.4541C9.08887 8.38867 8.80957 8.48535 8.61621 8.67871C8.42285 8.87207 8.32617 9.15853 8.32617 9.53809V17.0791C8.32617 17.4372 8.42285 17.7165 8.61621 17.917C8.81673 18.1104 9.09603 18.207 9.4541 18.207H18.1445V14.7051H10.7109V11.8906H19.5303C19.7308 11.8906 19.917 11.93 20.0889 12.0088C20.2607 12.0804 20.4076 12.1807 20.5293 12.3096C20.6582 12.4385 20.7585 12.5889 20.8301 12.7607C20.9017 12.9255 20.9375 13.1045 20.9375 13.2979V19.5928ZM39.2207 14.5547C39.2207 15.4928 39.056 16.3558 38.7266 17.1436C38.4043 17.9313 37.9567 18.6117 37.3838 19.1846C36.8109 19.7503 36.1305 20.1943 35.3428 20.5166C34.555 20.8389 33.6992 21 32.7754 21H25.2344C25.0339 21 24.8477 20.9642 24.6758 20.8926C24.5039 20.821 24.3535 20.7243 24.2246 20.6025C24.1029 20.4736 24.0062 20.3232 23.9346 20.1514C23.863 19.9795 23.8271 19.7933 23.8271 19.5928V7.00293C23.8271 6.80957 23.863 6.62695 23.9346 6.45508C24.0062 6.2832 24.1029 6.13281 24.2246 6.00391C24.3535 5.875 24.5039 5.77474 24.6758 5.70312C24.8477 5.63151 25.0339 5.5957 25.2344 5.5957H32.7754C33.6992 5.5957 34.555 5.75684 35.3428 6.0791C36.1305 6.40137 36.8109 6.84896 37.3838 7.42188C37.9567 7.98763 38.4043 8.66797 38.7266 9.46289C39.056 10.2507 39.2207 11.11 39.2207 12.041V14.5547ZM36.4277 12.041C36.4277 11.4967 36.3382 10.999 36.1592 10.5479C35.9873 10.0967 35.7402 9.71354 35.418 9.39844C35.0957 9.07617 34.709 8.8291 34.2578 8.65723C33.8138 8.47819 33.3197 8.38867 32.7754 8.38867H26.6201V18.207H32.7754C33.3197 18.207 33.8138 18.1211 34.2578 17.9492C34.709 17.7702 35.0957 17.5231 35.418 17.208C35.7402 16.8857 35.9873 16.5026 36.1592 16.0586C36.3382 15.6074 36.4277 15.1061 36.4277 14.5547V12.041ZM57.1602 19.5928C57.1602 19.7933 57.1243 19.9795 57.0527 20.1514C56.9811 20.3232 56.8809 20.4736 56.752 20.6025C56.6302 20.7243 56.4834 20.821 56.3115 20.8926C56.1396 20.9642 55.9535 21 55.7529 21H45.6768C45.4189 21 45.1396 20.9714 44.8389 20.9141C44.5452 20.8496 44.2516 20.7529 43.958 20.624C43.6715 20.4951 43.3958 20.3304 43.1309 20.1299C42.8659 19.9222 42.6296 19.6751 42.4219 19.3887C42.2214 19.0951 42.0602 18.7585 41.9385 18.3789C41.8167 17.9922 41.7559 17.5589 41.7559 17.0791V9.5166C41.7559 9.25879 41.7845 8.98307 41.8418 8.68945C41.9062 8.38867 42.0029 8.09505 42.1318 7.80859C42.2607 7.51497 42.429 7.23568 42.6367 6.9707C42.8444 6.70573 43.0915 6.47298 43.3779 6.27246C43.6715 6.06478 44.0081 5.90007 44.3877 5.77832C44.7673 5.65658 45.1969 5.5957 45.6768 5.5957H57.0312V8.38867H45.6768C45.3115 8.38867 45.0322 8.48535 44.8389 8.67871C44.6455 8.87207 44.5488 9.15853 44.5488 9.53809V17.0791C44.5488 17.4372 44.6455 17.7165 44.8389 17.917C45.0394 18.1104 45.3187 18.207 45.6768 18.207H54.3672V14.7051H46.9336V11.8906H55.7529C55.9535 11.8906 56.1396 11.93 56.3115 12.0088C56.4834 12.0804 56.6302 12.1807 56.752 12.3096C56.8809 12.4385 56.9811 12.5889 57.0527 12.7607C57.1243 12.9255 57.1602 13.1045 57.1602 13.2979V19.5928ZM73.8643 21H63.7881C63.5303 21 63.251 20.9714 62.9502 20.9141C62.6566 20.8496 62.363 20.7529 62.0693 20.624C61.7829 20.4951 61.5072 20.3304 61.2422 20.1299C60.9772 19.9222 60.7409 19.6751 60.5332 19.3887C60.3327 19.0951 60.1715 18.7585 60.0498 18.3789C59.9281 17.9922 59.8672 17.5589 59.8672 17.0791V9.5166C59.8672 9.25879 59.8958 8.98307 59.9531 8.68945C60.0176 8.38867 60.1143 8.09505 60.2432 7.80859C60.3721 7.51497 60.5404 7.23568 60.748 6.9707C60.9557 6.70573 61.2028 6.47298 61.4893 6.27246C61.7829 6.06478 62.1195 5.90007 62.499 5.77832C62.8786 5.65658 63.3083 5.5957 63.7881 5.5957H73.8643V8.38867H63.7881C63.4229 8.38867 63.1436 8.48535 62.9502 8.67871C62.7568 8.87207 62.6602 9.15853 62.6602 9.53809V17.0791C62.6602 17.4372 62.7568 17.7165 62.9502 17.917C63.1507 18.1104 63.43 18.207 63.7881 18.207H73.8643V21Z" fill="white"/>
</svg>
